<svg width="123" height="69" viewBox="0 0 123 69" fill="none" xmlns="http://www.w3.org/2000/svg">
<path d="M103.097 3.20386L61.5211 17.3662L19.9026 3.20386L0 32.0329L61.5211 53.0034L123 32.0329L103.097 3.20386Z" fill="#4E2999"/>
<path opacity="0.45" d="M7.25266 30.8563L58.2743 50.3138L40.7329 32.9995C40.7329 32.9995 11.9331 26.0654 7.25266 30.8563Z" fill="#240F4F"/>
<path opacity="0.45" d="M115.79 30.8563L64.7679 50.3138L82.3092 32.9995C82.2671 32.9995 111.067 26.0654 115.79 30.8563Z" fill="#240F4F"/>
<path d="M61.5211 53.0034L0 32.033V34.7646L61.5211 55.735L123 34.7646V32.033L61.5211 53.0034Z" fill="#994EF8"/>
<path d="M28.7576 65.6109L35.8838 46.9938L58.8224 54.8105L28.7576 65.6109Z" fill="#3B1E77"/>
<path opacity="0.45" d="M30.7395 60.2317L58.8224 54.8105L35.8838 46.9938L30.7395 60.2317Z" fill="#3B1E77"/>
<path d="M61.5211 53.8439L28.7576 65.6109L31.2033 68.1744L61.5211 57.4161L91.7967 68.1744L94.2845 65.6109L61.5211 53.8439Z" fill="#994EF8"/>
<path d="M94.2845 65.6109L87.1162 46.9938L64.1776 54.8105L94.2845 65.6109Z" fill="#3B1E77"/>
<path opacity="0.45" d="M92.2605 60.2317L64.1776 54.8105L87.1162 46.9938L92.2605 60.2317Z" fill="#3B1E77"/>
<path d="M61.5211 57.416C62.7553 57.416 63.7559 56.4188 63.7559 55.1887C63.7559 53.9586 62.7553 52.9614 61.5211 52.9614C60.2868 52.9614 59.2862 53.9586 59.2862 55.1887C59.2862 56.4188 60.2868 57.416 61.5211 57.416Z" fill="white" fill-opacity="0.5"/>
<path d="M101.326 3.20386L61.5211 22.9556L21.7158 3.20386C19.9026 5.59928 5.31299 29.8476 5.31299 29.8476C5.48165 29.8476 5.60816 29.8897 5.77682 29.8897C42.3774 33.5458 52.5396 45.0186 55.9129 47.7923C59.2862 50.608 61.5632 50.3138 61.5632 50.3138C61.5632 50.3138 63.8402 50.608 67.2136 47.7923C70.5869 45.0186 80.7491 33.5458 117.35 29.8897C117.518 29.8897 117.645 29.8476 117.814 29.8476C117.729 29.8476 103.097 5.6413 101.326 3.20386Z" fill="#F5B304"/>
<path d="M117.729 29.8477C117.561 29.8477 117.434 29.8897 117.265 29.8897C80.6647 33.5458 70.5026 45.0187 67.1292 47.7923C63.7559 50.608 61.4789 50.3138 61.4789 50.3138C61.4789 50.3138 59.2019 50.608 55.8286 47.7923C52.4553 45.0187 42.2931 33.5458 5.69249 29.8897C5.52382 29.8897 5.39732 29.8477 5.22866 29.8477C4.93349 30.3099 5.22866 30.6461 5.22866 30.6461C42.2088 34.2182 52.0336 45.7331 55.4069 48.5487C58.7803 51.3224 61.4367 51.1123 61.4367 51.1123C61.4367 51.1123 64.0932 51.3224 67.4666 48.5487C70.8399 45.7751 80.6647 34.2603 117.645 30.6461C117.729 30.6461 118.024 30.3099 117.729 29.8477Z" fill="#994EF8"/>
<path d="M99.8084 0.892515C79.4419 -3.98237 61.4789 12.7015 61.4789 12.7015C61.4789 12.7015 43.5159 -3.98237 23.1495 0.892515C23.1495 0.892515 17.3726 9.71774 9.40314 24.7206C9.40314 24.7206 49.5036 29.2173 61.4789 45.9852C73.4542 29.2173 113.555 24.7206 113.555 24.7206C105.585 9.71774 99.8084 0.892515 99.8084 0.892515Z" fill="#F5EFFB"/>
<path d="M113.555 24.7206C113.555 24.7206 73.4542 29.2173 61.4789 45.9852C49.5458 29.2173 9.44531 24.7206 9.44531 24.7206C9.44531 24.7206 9.44531 26.0654 7.21048 28.713C7.21048 28.713 43.6003 31.3186 56.8406 46.3635C59.9609 49.8936 61.4789 49.4733 61.4789 49.4733C61.4789 49.4733 63.0391 49.8936 66.1172 46.3635C79.3154 31.3186 115.747 28.713 115.747 28.713C113.555 26.0234 113.555 24.7206 113.555 24.7206Z" fill="#DFCBF4"/>
<path d="M97.5314 2.65759C97.5314 2.65759 82.3092 -1.20871 61.4789 14.8868C40.6908 -1.16668 25.4265 2.65759 25.4265 2.65759L15.1378 22.5774C46.4254 24.7207 61.4789 40.48 61.4789 40.48C61.4789 40.48 76.5324 24.7207 107.82 22.5774L97.5314 2.65759ZM61.5211 38.5889C61.5211 38.5889 47.4374 24.2164 17.5835 21.4007L26.2276 3.49809C26.2276 3.49809 41.1968 0.598367 61.5211 15.8114C81.8454 0.598367 96.8145 3.49809 96.8145 3.49809L105.459 21.4007C75.6047 24.2164 61.5211 38.5889 61.5211 38.5889Z" fill="#863ED5"/>
<path opacity="0.2" d="M65.3582 29.8871C70.9805 25.7546 88.5499 16.6098 100.357 17.8706" stroke="#863ED5" stroke-width="3" stroke-linecap="round"/>
<path opacity="0.2" d="M65.3582 18.2908C70.348 14.397 83.3212 6.7679 95.2965 7.40146" stroke="#863ED5" stroke-width="3" stroke-linecap="round"/>
<path opacity="0.2" d="M65.3582 24.1743C70.7696 19.981 84.8392 11.765 97.8265 12.4473" stroke="#863ED5" stroke-width="3" stroke-linecap="round"/>
<path opacity="0.2" d="M58.1899 29.8871C52.5677 25.7546 34.9983 16.6098 23.1916 17.8706" stroke="#863ED5" stroke-width="3" stroke-linecap="round"/>
<path opacity="0.2" d="M58.1899 18.2908C53.2002 14.397 40.2269 6.7679 28.2516 7.40146" stroke="#863ED5" stroke-width="3" stroke-linecap="round"/>
<path opacity="0.2" d="M58.1899 24.1743C52.7785 19.981 38.7089 11.765 25.7216 12.4473" stroke="#863ED5" stroke-width="3" stroke-linecap="round"/>
<path d="M61.5211 12.7015C61.5211 12.7015 61.9427 11.2306 62.7439 11.6509C62.7439 11.6509 62.2379 35.479 63.0812 44.7665C63.2921 47.0779 65.3161 50.2298 66.1172 51.4065H65.0631L64.7679 52.373C64.7679 52.373 61.6476 47.1199 61.5211 45.0607C60.8886 35.8152 61.2259 14.9288 61.5211 12.7015Z" fill="#54DAF5"/>
</svg>
